<?xml version="1.0" encoding="UTF-8" standalone="no"?>
<svg
   width="805"
   height="600"
   version="1.1"
   id="svg331"
   sodipodi:docname="PUBLICA EL PRECIO.svg"
   inkscape:version="1.2.2 (732a01da63, 2022-12-09, custom)"
   xmlns:inkscape="http://www.inkscape.org/namespaces/inkscape"
   xmlns:sodipodi="http://sodipodi.sourceforge.net/DTD/sodipodi-0.dtd"
   xmlns="http://www.w3.org/2000/svg"
   xmlns:svg="http://www.w3.org/2000/svg">
  <defs
     id="defs335">
    <rect
       x="421.99906"
       y="294.70162"
       width="57.093567"
       height="12.651873"
       id="rect603" />
    <rect
       x="58.873856"
       y="593.90326"
       width="844.59669"
       height="61.105083"
       id="rect5850" />
  </defs>
  <sodipodi:namedview
     id="namedview333"
     pagecolor="#ffffff"
     bordercolor="#666666"
     borderopacity="1.0"
     inkscape:showpageshadow="2"
     inkscape:pageopacity="0.0"
     inkscape:pagecheckerboard="0"
     inkscape:deskcolor="#d1d1d1"
     showgrid="false"
     inkscape:zoom="0.9983453"
     inkscape:cx="403.16712"
     inkscape:cy="308.51049"
     inkscape:window-width="1680"
     inkscape:window-height="1013"
     inkscape:window-x="1920"
     inkscape:window-y="0"
     inkscape:window-maximized="1"
     inkscape:current-layer="svg331" />
  <rect
     width="616.64258"
     height="459.60925"
     x="83.243698"
     y="81.085854"
     fill="#ffffff"
     id="backgorund"
     style="stroke-width:0.766003" />
  <g
     transform="matrix(0.76601514,0,0,0.76601514,391.5648,310.89039)"
     id="viz">
    <path
       fill="#cccccc"
       display=""
       d="m 0.99999179,-187.99734 a 188,188 0 0 1 56.36053921,8.96167 L 28.513879,-90.619858 A 95,95 0 0 0 0.99999179,-94.994737 Z"
       id="path151"
       style="fill:#75ba4a;fill-opacity:1">
      <title
         id="title149">SI</title>
    </path>
    <path
       fill="#cccccc"
       display=""
       d="m 59.261878,-178.41533 a 188,188 0 1 1 -60.26186979,-9.58201 v 93.002603 a 95,95 0 1 0 31.41521779,4.995215 z"
       id="path155"
       style="fill:#365be4;fill-opacity:1">
      <title
         id="title153">NO</title>
    </path>
    <path
       fill="#2979b0"
       display=""
       d="m 0.99999179,-282.99823 a 283,283 0 0 1 18.58059121,0.67643 l -6.762463,92.75467 a 190,190 0 0 0 -11.81812821,-0.43024 z"
       id="path159">
      <title
         id="title157">AstraZeneca</title>
    </path>
    <path
       fill="#8c564b"
       display=""
       d="m 21.575272,-282.17638 a 283,283 0 0 1 1.428265,0.11285 l -7.887024,92.66582 a 190,190 0 0 0 -0.303704,-0.024 z"
       id="path163">
      <title
         id="title161">Novavax</title>
    </path>
    <path
       fill="#d62728"
       display=""
       d="m 24.996316,-281.89392 a 283,283 0 0 1 1.426792,0.13015 l -9.010426,92.56335 a 190,190 0 0 0 -0.30339,-0.0277 z"
       id="path167">
      <title
         id="title165">Janssen Pharmaceuticals</title>
    </path>
    <path
       fill="#9467bd"
       display=""
       d="m 28.413683,-281.57 a 283,283 0 0 1 8.242801,0.95407 l -12.372015,92.17426 a 190,190 0 0 0 -4.881212,-0.56498 z"
       id="path171">
      <title
         id="title169">Moderna</title>
    </path>
    <path
       fill="#ec9acd"
       display=""
       d="m 38.638691,-280.34987 a 283,283 0 0 1 21.683631,3.85355 l -20.144367,90.79298 a 190,190 0 0 0 -13.911278,-2.47227 z"
       id="path175">
      <title
         id="title173">Pfizer BioNTech</title>
    </path>
    <path
       fill="#17becf"
       display=""
       d="m 62.274825,-276.06312 a 283,283 0 0 1 4.736725,1.11139 l -22.340807,90.27763 a 190,190 0 0 0 -2.540285,-0.59604 z"
       id="path179">
      <title
         id="title177">Sinopharm (Beijing)</title>
    </path>
    <path
       fill="#cccccc"
       display=""
       d="m 68.952971,-274.47129 a 283,283 0 0 1 8.017256,2.13954 l -25.610414,89.40507 a 190,190 0 0 0 -4.74765,-1.26699 z"
       id="path183">
      <title
         id="title181">Sinovac</title>
    </path>
    <path
       fill="#bcbd22"
       display=""
       d="m 78.892883,-271.781 a 283,283 0 0 1 1.374904,0.40288 l -26.692961,89.08786 a 190,190 0 0 0 -0.292357,-0.0857 z"
       id="path187">
      <title
         id="title185">Serum Institute of India</title>
    </path>
    <path
       fill="#ff7f0e"
       display=""
       d="m 82.183621,-270.80408 a 283,283 0 0 1 1.369916,0.41953 l -27.77158,88.75753 a 190,190 0 0 0 -0.291297,-0.0892 z"
       id="path191">
      <title
         id="title189">Bharat Biotech</title>
    </path>
    <path
       fill="#7f7f7f"
       display=""
       d="m 85.462267,-269.78733 a 283,283 0 0 1 1.364727,0.43612 l -28.846113,88.41416 a 190,190 0 0 0 -0.290193,-0.0927 z"
       id="path195">
      <title
         id="title193">SK Bioscience - GSK</title>
    </path>
    <path
       fill="#2979b0"
       display=""
       d="m 88.72834,-268.73087 a 283,283 0 0 1 108.83941,66.10811 l -65.16057,66.35706 a 190,190 0 0 0 -72.524953,-44.05102 z"
       id="path199">
      <title
         id="title197">AstraZeneca</title>
    </path>
    <path
       fill="#9467bd"
       display=""
       d="m 198.99476,-201.22148 a 283,283 0 0 1 81.58429,164.283769 l -92.24759,11.812767 A 190,190 0 0 0 133.83418,-134.86442 Z"
       id="path203">
      <title
         id="title201">Moderna</title>
    </path>
    <path
       fill="#ec9acd"
       display=""
       d="M 280.83309,-34.953926 A 283,283 0 0 1 -9.2964498,282.84727 l 3.3834713,-92.9393 A 190,190 0 0 0 188.58549,-23.141159 Z"
       id="path207">
      <title
         id="title205">Pfizer BioNTech</title>
    </path>
    <path
       fill="#bcbd22"
       display=""
       d="M -11.295109,282.7745 A 283,283 0 0 1 -168.8566,227.10449 l 55.75386,-74.43566 a 190,190 0 0 0 105.1911019,37.16638 z"
       id="path211">
      <title
         id="title209">Serum Institute of India</title>
    </path>
    <path
       fill="#d62728"
       display=""
       d="m -170.45734,225.9055 a 283,283 0 0 1 -52.30955,-51.36635 l 73.40898,-57.09889 a 190,190 0 0 0 34.65443,34.02958 z"
       id="path215">
      <title
         id="title213">Janssen Pharmaceuticals</title>
    </path>
    <path
       fill="#8c564b"
       display=""
       d="m -223.9948,172.96049 a 283,283 0 0 1 -26.67668,-41.61055 l 82.52891,-42.873517 a 190,190 0 0 0 17.55675,27.385177 z"
       id="path219">
      <title
         id="title217">Novavax</title>
    </path>
    <path
       fill="#cccccc"
       display=""
       d="m -251.59348,129.57516 a 283,283 0 0 1 -19.29284,-211.487328 l 88.92434,27.232771 a 190,190 0 0 0 12.89742,141.381036 z"
       id="path223">
      <title
         id="title221">Sinovac</title>
    </path>
    <path
       fill="#17becf"
       display=""
       d="M -270.30068,-83.824486 A 283,283 0 0 1 -88.72834,-268.73087 l 28.846113,88.41415 A 190,190 0 0 0 -181.37634,-56.591715 Z"
       id="path227">
      <title
         id="title225">Sinopharm (Beijing)</title>
    </path>
    <path
       fill="#2ca02c"
       display=""
       d="m -86.826994,-269.35121 a 283,283 0 0 1 31.266963,-8.14128 l 17.936072,91.25491 a 190,190 0 0 0 -20.356922,5.30053 z"
       id="path231"
       style="fill:#f7d147;fill-opacity:1">
      <title
         id="title229">CanSino Biologicals</title>
    </path>
    <path
       fill="#ff7f0e"
       display=""
       d="m -53.597595,-277.87821 a 283,283 0 0 1 52.59760321,-5.12002 v 93.00086 a 190,190 0 0 0 -34.66153021,3.37407 z"
       id="path235">
      <title
         id="title233">Bharat Biotech</title>
    </path>
  </g>
  <g
     id="labels"
     transform="matrix(0.76601514,0,0,0.76601514,391.5648,310.89039)"
     text-anchor="middle">
    <text
       transform="rotate(-90,23.75,23.75)"
       id="text240"><tspan
         x="0"
         y="4"
         style="font-weight:normal;font-size:10px;font-family:Arial, sans-serif;fill:#000000"
         id="tspan238" /></text>
    <text
       transform="rotate(-80.965251,-71.25,-83.474275)"
       id="text244"><tspan
         x="0"
         y="4"
         style="font-style:normal;font-variant:normal;font-weight:normal;font-stretch:normal;font-size:17.4061px;font-family:Arial, sans-serif;-inkscape-font-specification:'Arial, sans-serif, Normal';font-variant-ligatures:normal;font-variant-caps:normal;font-variant-numeric:normal;font-variant-east-asian:normal;fill:#f9f9f9"
         id="tspan242">YES</tspan></text>
    <text
       transform="rotate(-80.965251,71.25,83.474275)"
       id="text248"><tspan
         x="0"
         y="4"
         style="font-style:normal;font-variant:normal;font-weight:normal;font-stretch:normal;font-size:17.4061px;font-family:Arial, sans-serif;-inkscape-font-specification:'Arial, sans-serif, Normal';font-variant-ligatures:normal;font-variant-caps:normal;font-variant-numeric:normal;font-variant-east-asian:normal;fill:#f9f9f9"
         id="tspan246">NO</tspan></text>
    <text
       transform="rotate(-87.915058)"
       id="text252"
       x="237.46561"
       y="-1.8342918"><tspan
         x="237.46561"
         y="2.1657083"
         style="font-weight:normal;font-size:10px;font-family:Arial, sans-serif;fill:#000000"
         id="tspan250">A<tspan
   style="font-style:normal;font-variant:normal;font-weight:normal;font-stretch:normal;font-size:10.4437px;font-family:Arial, sans-serif;-inkscape-font-specification:'Arial, sans-serif, Normal';font-variant-ligatures:normal;font-variant-caps:normal;font-variant-numeric:normal;font-variant-east-asian:normal"
   id="tspan1412">straZeneca</tspan></tspan></text>
    <text
       transform="rotate(-85.482625)"
       id="text256"
       x="296.28671"
       y="-4.5084028"
       style="font-size:8.45269px;stroke-width:0.704391"><tspan
         x="296.28671"
         y="-1.6908404"
         style="font-weight:normal;font-size:7.04391px;font-family:Arial, sans-serif;fill:#000000;stroke-width:0.704391"
         id="tspan254">N<tspan
   style="font-style:normal;font-variant:normal;font-weight:normal;font-stretch:normal;font-size:10.4437px;font-family:Arial, sans-serif;-inkscape-font-specification:'Arial, sans-serif, Normal';font-variant-ligatures:normal;font-variant-caps:normal;font-variant-numeric:normal;font-variant-east-asian:normal"
   id="tspan1410">ovavax</tspan></tspan></text>
    <text
       transform="rotate(-84.787645)"
       id="text260"
       x="302.86874"
       y="3.6490533"
       style="font-size:10.4437px;stroke-width:0.748657;-inkscape-font-specification:'sans-serif, Normal';font-family:sans-serif;font-weight:normal;font-style:normal;font-stretch:normal;font-variant:normal;font-variant-ligatures:normal;font-variant-caps:normal;font-variant-numeric:normal;font-variant-east-asian:normal"><tspan
         x="302.86874"
         y="6.643681"
         style="font-weight:normal;font-size:10.44365781px;font-family:sans-serif;fill:#000000;stroke-width:0.748657;-inkscape-font-specification:'sans-serif, Normal';font-style:normal;font-stretch:normal;font-variant:normal;font-variant-ligatures:normal;font-variant-caps:normal;font-variant-numeric:normal;font-variant-east-asian:normal"
         id="tspan258">Jan<tspan
   style="font-style:normal;font-variant:normal;font-weight:normal;font-stretch:normal;font-size:10.44365781px;font-family:sans-serif;-inkscape-font-specification:'sans-serif, Normal';font-variant-ligatures:normal;font-variant-caps:normal;font-variant-numeric:normal;font-variant-east-asian:normal"
   id="tspan1408">ssen Pharmaceuticals</tspan></tspan></text>
    <text
       transform="rotate(-83.397683)"
       id="text264"
       x="210.45526"
       y="-1.1724701"
       style="font-size:9.02688px;stroke-width:0.75224"><tspan
         x="210.45526"
         y="1.836491"
         style="font-weight:normal;font-size:7.5224px;font-family:Arial, sans-serif;fill:#000000;stroke-width:0.75224"
         id="tspan262">M<tspan
   style="font-style:normal;font-variant:normal;font-weight:normal;font-stretch:normal;font-size:10.4437px;font-family:Arial, sans-serif;-inkscape-font-specification:'Arial, sans-serif, Normal';font-variant-ligatures:normal;font-variant-caps:normal;font-variant-numeric:normal;font-variant-east-asian:normal"
   id="tspan1406">oderna</tspan></tspan></text>
    <text
       transform="rotate(-79.92278)"
       id="text268"
       x="244.54285"
       y="-1.2164574"
       style="font-size:10.0245px;stroke-width:0.835372"><tspan
         x="244.54285"
         y="2.1250312"
         style="font-style:normal;font-variant:normal;font-weight:normal;font-stretch:normal;font-size:12.1843px;font-family:Arial, sans-serif;-inkscape-font-specification:'Arial, sans-serif, Normal';font-variant-ligatures:normal;font-variant-caps:normal;font-variant-numeric:normal;font-variant-east-asian:normal;fill:#000000;stroke-width:0.835372"
         id="tspan266">Pfizer BioNTech</tspan></text>
    <text
       transform="rotate(-76.795367)"
       id="text272"
       x="220.05539"
       y="-0.90077889"
       style="font-size:8.42932px;stroke-width:0.702444"><tspan
         x="220.05539"
         y="1.9089959"
         style="font-weight:normal;font-size:7.02444px;font-family:Arial, sans-serif;fill:#000000;stroke-width:0.702444"
         id="tspan270">Si<tspan
   style="font-style:normal;font-variant:normal;font-weight:normal;font-stretch:normal;font-size:10.4437px;font-family:Arial, sans-serif;-inkscape-font-specification:'Arial, sans-serif, Normal';font-variant-ligatures:normal;font-variant-caps:normal;font-variant-numeric:normal;font-variant-east-asian:normal"
   id="tspan1404">nopharm (Beijing)</tspan></tspan></text>
    <text
       transform="rotate(-75.057915)"
       id="text276"
       x="302.81769"
       y="-10.72096"
       style="font-size:10.4437px;stroke-width:0.724412;-inkscape-font-specification:'sans-serif, Normal';font-family:sans-serif;font-weight:normal;font-style:normal;font-stretch:normal;font-variant:normal;font-variant-ligatures:normal;font-variant-caps:normal;font-variant-numeric:normal;font-variant-east-asian:normal"><tspan
         x="302.81769"
         y="-7.8233128"
         style="font-weight:normal;font-size:10.44365781px;font-family:sans-serif;fill:#000000;stroke-width:0.724412;-inkscape-font-specification:'sans-serif, Normal';font-style:normal;font-stretch:normal;font-variant:normal;font-variant-ligatures:normal;font-variant-caps:normal;font-variant-numeric:normal;font-variant-east-asian:normal"
         id="tspan274">Sinovac</tspan></text>
    <text
       transform="rotate(-73.667954)"
       id="text280"
       x="226.84731"
       y="-1.5349432"
       style="font-size:9.1517px;stroke-width:0.762641"><tspan
         x="226.84731"
         y="1.5156221"
         style="font-style:normal;font-variant:normal;font-weight:normal;font-stretch:normal;font-size:10.4437px;font-family:Arial, sans-serif;-inkscape-font-specification:'Arial, sans-serif, Normal';font-variant-ligatures:normal;font-variant-caps:normal;font-variant-numeric:normal;font-variant-east-asian:normal;fill:#000000;stroke-width:0.762641"
         id="tspan278">Serum Institute of India</tspan></text>
    <text
       transform="rotate(-72.972973)"
       id="text284"
       x="312.45395"
       y="-1.4067028"
       style="font-size:7.12398px;stroke-width:0.593663"><tspan
         x="312.45395"
         y="0.96795052"
         style="font-weight:normal;font-size:5.93663px;font-family:Arial, sans-serif;fill:#000000;stroke-width:0.593663"
         id="tspan282">B<tspan
   style="font-style:normal;font-variant:normal;font-weight:normal;font-stretch:normal;font-size:10.4437px;font-family:Arial, sans-serif;-inkscape-font-specification:'Arial, sans-serif, Normal';font-variant-ligatures:normal;font-variant-caps:normal;font-variant-numeric:normal;font-variant-east-asian:normal"
   id="tspan1402">harat Biotech</tspan></tspan></text>
    <text
       transform="rotate(-72.277992)"
       id="text288"
       x="309.50565"
       y="4.5306239"
       style="font-size:7.25375px;stroke-width:0.604479"><tspan
         x="309.50565"
         y="6.9485421"
         style="font-weight:normal;font-size:6.04479px;font-family:Arial, sans-serif;fill:#000000;stroke-width:0.604479"
         id="tspan286">SK B<tspan
   style="font-style:normal;font-variant:normal;font-weight:normal;font-stretch:normal;font-size:10.4437px;font-family:Arial, sans-serif;-inkscape-font-specification:'Arial, sans-serif, Normal';font-variant-ligatures:normal;font-variant-caps:normal;font-variant-numeric:normal;font-variant-east-asian:normal"
   id="tspan1400">ioscience - GSK</tspan></tspan></text>
    <text
       transform="rotate(-58.725869,-118.75,-211.06644)"
       id="text292"><tspan
         x="0"
         y="4"
         style="font-style:normal;font-variant:normal;font-weight:normal;font-stretch:normal;font-size:12.1843px;font-family:Arial, sans-serif;-inkscape-font-specification:'Arial, sans-serif, Normal';font-variant-ligatures:normal;font-variant-caps:normal;font-variant-numeric:normal;font-variant-east-asian:normal;fill:#000000"
         id="tspan290">AstraZeneca</tspan></text>
    <text
       transform="rotate(-26.409266,-118.75,-506.10912)"
       id="text296"><tspan
         x="0"
         y="4"
         style="font-style:normal;font-variant:normal;font-weight:normal;font-stretch:normal;font-size:12.1843px;font-family:Arial, sans-serif;-inkscape-font-specification:'Arial, sans-serif, Normal';font-variant-ligatures:normal;font-variant-caps:normal;font-variant-numeric:normal;font-variant-east-asian:normal;fill:#000000"
         id="tspan294">Moderna</tspan></text>
    <text
       transform="rotate(42.393822,-118.75,306.20474)"
       id="text300"><tspan
         x="0"
         y="4"
         style="font-style:normal;font-variant:normal;font-weight:normal;font-stretch:normal;font-size:12.1843px;font-family:Arial, sans-serif;-inkscape-font-specification:'Arial, sans-serif, Normal';font-variant-ligatures:normal;font-variant-caps:normal;font-variant-numeric:normal;font-variant-east-asian:normal;fill:#000000"
         id="tspan298">Pfizer BioNTech</tspan></text>
    <text
       transform="rotate(-70.540541)"
       id="text304"
       style="font-style:normal;font-variant:normal;font-weight:normal;font-stretch:normal;font-size:10.4437px;font-family:Arial, sans-serif;-inkscape-font-specification:'Arial, sans-serif, Normal';font-variant-ligatures:normal;font-variant-caps:normal;font-variant-numeric:normal;font-variant-east-asian:normal"
       x="-248.45781"
       y="-0.58345234"><tspan
         x="-248.45781"
         y="3.4165475"
         style="font-style:normal;font-variant:normal;font-weight:normal;font-stretch:normal;font-size:10.4437px;font-family:Arial, sans-serif;-inkscape-font-specification:'Arial, sans-serif, Normal';font-variant-ligatures:normal;font-variant-caps:normal;font-variant-numeric:normal;font-variant-east-asian:normal;fill:#000000"
         id="tspan302">Serum Institute of India</tspan></text>
    <text
       transform="rotate(-45.521236)"
       id="text308"
       x="-261.14859"
       y="-3.9621189"><tspan
         x="-261.14859"
         y="0.037881106"
         style="font-weight:normal;font-size:10px;font-family:Arial, sans-serif;fill:#000000"
         id="tspan306">J<tspan
   style="font-style:normal;font-variant:normal;font-weight:normal;font-stretch:normal;font-size:12.1843px;font-family:Arial, sans-serif;-inkscape-font-specification:'Arial, sans-serif, Normal';font-variant-ligatures:normal;font-variant-caps:normal;font-variant-numeric:normal;font-variant-east-asian:normal"
   id="tspan1414">anssen Pharmaceuticals</tspan></tspan></text>
    <text
       transform="rotate(-32.664093,118.75,405.25178)"
       id="text312"><tspan
         x="0"
         y="4"
         style="font-style:normal;font-variant:normal;font-weight:normal;font-stretch:normal;font-size:12.1843px;font-family:Arial, sans-serif;-inkscape-font-specification:'Arial, sans-serif, Normal';font-variant-ligatures:normal;font-variant-caps:normal;font-variant-numeric:normal;font-variant-east-asian:normal;fill:#000000"
         id="tspan310">Novavax</tspan></text>
    <text
       transform="rotate(-5.2123552,118.75,2608.8708)"
       id="text316"><tspan
         x="0"
         y="4"
         style="font-style:normal;font-variant:normal;font-weight:normal;font-stretch:normal;font-size:12.1843px;font-family:Arial, sans-serif;-inkscape-font-specification:'Arial, sans-serif, Normal';font-variant-ligatures:normal;font-variant-caps:normal;font-variant-numeric:normal;font-variant-east-asian:normal;fill:#000000"
         id="tspan314">Sinovac</tspan></text>
    <text
       transform="rotate(44.478764)"
       id="text320"
       x="-248.57674"
       y="-0.10077175"><tspan
         x="-248.57674"
         y="3.8992281"
         style="font-style:normal;font-variant:normal;font-weight:normal;font-stretch:normal;font-size:12.1843px;font-family:Arial, sans-serif;-inkscape-font-specification:'Arial, sans-serif, Normal';font-variant-ligatures:normal;font-variant-caps:normal;font-variant-numeric:normal;font-variant-east-asian:normal;fill:#000000"
         id="tspan318">Sinopharm (Beijing)</tspan></text>
    <text
       transform="rotate(75.405405,118.75,-153.62957)"
       id="text324"><tspan
         x="0"
         y="4"
         style="font-style:normal;font-variant:normal;font-weight:normal;font-stretch:normal;font-size:12.1843px;font-family:Arial, sans-serif;-inkscape-font-specification:'Arial, sans-serif, Normal';font-variant-ligatures:normal;font-variant-caps:normal;font-variant-numeric:normal;font-variant-east-asian:normal;fill:#000000"
         id="tspan322">CanSino Biologicals</tspan></text>
    <text
       transform="rotate(84.440154,118.75,-130.87082)"
       id="text328"><tspan
         x="0"
         y="4"
         style="font-style:normal;font-variant:normal;font-weight:normal;font-stretch:normal;font-size:12.1843px;font-family:Arial, sans-serif;-inkscape-font-specification:'Arial, sans-serif, Normal';font-variant-ligatures:normal;font-variant-caps:normal;font-variant-numeric:normal;font-variant-east-asian:normal;fill:#000000"
         id="tspan326">Bharat Biotech</tspan></text>
  </g>
  <text
     xml:space="preserve"
     style="font-weight:bold;font-size:17.40609635px;line-height:1.25;font-family:'Open Sans';-inkscape-font-specification:'Open Sans, Bold';white-space:pre;inline-size:116.046;display:inline;font-style:normal;font-stretch:normal;font-variant:normal;font-variant-ligatures:normal;font-variant-caps:normal;font-variant-numeric:normal;font-variant-east-asian:normal"
     x="402.96658"
     y="287.93915"
     id="text549"
     transform="matrix(0.76601514,0,0,0.76601514,37.536261,58.63999)"><tspan
       x="402.96658"
       y="287.93915"
       id="tspan1674"><tspan
         style="text-align:center;text-anchor:middle"
         id="tspan1672">Does the </tspan></tspan><tspan
       x="402.96658"
       y="309.69676"
       id="tspan1678"><tspan
         style="text-align:center;text-anchor:middle"
         id="tspan1676">contract </tspan></tspan><tspan
       x="402.96658"
       y="331.45439"
       id="tspan1682"><tspan
         style="text-align:center;text-anchor:middle"
         id="tspan1680">publish tue </tspan></tspan><tspan
       x="402.96658"
       y="353.21202"
       id="tspan1686"><tspan
         style="text-align:center;text-anchor:middle"
         id="tspan1684">price of </tspan></tspan><tspan
       x="402.96658"
       y="374.96965"
       id="tspan1690"><tspan
         style="text-align:center;text-anchor:middle"
         id="tspan1688">doses?</tspan></tspan></text>
  <text
     xml:space="preserve"
     id="text601"
     style="font-weight:bold;font-size:12px;line-height:1.25;font-family:'Open Sans';-inkscape-font-specification:'Open Sans, Bold';white-space:pre;shape-inside:url(#rect603);display:inline"
     transform="matrix(0.76601514,0,0,0.76601514,83.243699,81.085883)" />
  <path
     style="opacity:1;fill:#365be4;fill-opacity:0;stroke-width:0.87978"
     d="m 384.87688,454.4946 c -9.45946,-0.36536 -18.67693,-1.72257 -28.32866,-4.17136 -8.71828,-2.21181 -9.69512,-2.56038 -9.5735,-3.41592 0.078,-0.55259 -0.0925,-0.73698 -0.7038,-0.75553 -3.30802,-0.0998 -5.06635,-0.501 -8.72566,-1.98703 -14.9742,-6.08144 -29.18615,-14.88829 -41.07399,-25.45254 -2.74489,-2.43927 -3.22947,-3.02084 -2.87401,-3.44922 0.35233,-0.42433 0.0934,-0.85269 -1.466,-2.43256 -1.96079,-1.98536 -2.66464,-2.31871 -2.85955,-1.35432 -0.13006,0.64348 -6.07657,-5.81955 -10.44886,-11.3564 -15.0255,-19.0271 -25.01446,-41.46028 -29.04041,-65.21875 -1.51236,-8.9249 -1.7989,-12.89457 -1.77785,-24.63351 0.0168,-9.46508 0.13679,-11.95932 0.82014,-17.06747 2.54562,-19.02984 8.14901,-36.16408 17.09689,-52.27914 3.05873,-5.5089 9.49703,-15.037 13.77753,-20.38981 4.41541,-5.52144 14.46812,-15.72687 19.95365,-20.25674 24.42237,-20.16771 54.00134,-31.54861 86.01579,-33.09573 l 5.0147,-0.24233 v 35.54136 35.54135 l -4.13494,0.21631 c -22.12422,1.15725 -43.00711,13.34551 -55.96359,32.66317 -5.59677,8.34455 -9.55136,18.77616 -11.18938,29.51563 -0.84024,5.50945 -0.84742,15.67327 -0.0146,20.93853 4.18545,26.46492 21.11931,47.7595 45.74146,57.52015 14.39609,5.70682 31.48625,6.43767 46.8515,2.00353 14.92884,-4.30801 28.43553,-13.62631 37.82142,-26.09249 10.45466,-13.88602 15.82488,-31.9891 14.49451,-48.86261 -1.12363,-14.25208 -5.51662,-26.33059 -13.83437,-38.03715 -2.64258,-3.7193 -9.18342,-10.61885 -12.94025,-13.64982 -5.56747,-4.49166 -12.88963,-8.72987 -19.49351,-11.28292 l -2.92283,-1.13004 10.96417,-33.60708 c 9.7473,-29.87705 11.03848,-33.5938 11.63398,-33.48751 1.26844,0.22635 7.36686,2.60572 12.45885,4.86095 27.86897,12.34295 51.54076,33.91707 66.82498,60.90329 9.03262,15.94808 14.97846,34.32774 17.50694,54.11674 0.79339,6.20945 0.90369,24.485 0.18692,30.9679 -5.64299,51.0377 -36.73879,94.55213 -82.75934,115.8112 -21.21351,9.79951 -42.90091,14.03994 -67.03824,13.10787 z m -7.91805,-30.57202 c 0,-0.41552 -0.32832,-0.54218 -2.28741,-0.8822 l -1.40765,-0.2443 2.0236,-0.88354 c 2.9046,-1.26837 2.76423,-1.97637 -0.49903,-2.51528 -2.02905,-0.33508 -2.5781,-0.3279 -2.80697,0.0362 -0.2119,0.33741 0.22219,0.54403 1.70117,0.81006 l 1.98563,0.35703 -2.16995,0.93619 c -2.53492,1.09386 -2.84358,1.90281 -0.85018,2.22819 0.72578,0.11834 1.5572,0.2655 1.8475,0.32704 1.20774,0.25558 2.46329,0.16907 2.46329,-0.16969 z m 0.41226,-5.84994 c 0.96866,-0.87668 0.88339,-3.4326 -0.13853,-4.14833 -0.94815,-0.66412 -3.07652,-0.71594 -3.92485,-0.0949 -0.34016,0.24869 -0.70541,1.10126 -0.81189,1.89467 -0.15599,1.16253 -0.0486,1.58675 0.55127,2.18708 0.92909,0.9291 3.37515,1.02089 4.324,0.16218 z m -81.81352,-4.75763 c 0.94465,-0.88742 1.04357,-1.77364 0.2697,-2.41587 -0.44754,-0.37152 -0.76161,-0.34876 -1.75956,0.127 -0.66814,0.31873 -1.21477,0.43285 -1.21477,0.25395 0,-0.36151 0.70246,-0.88118 1.20234,-0.88957 0.17741,-0.003 0.38857,-0.20328 0.4692,-0.44522 0.21691,-0.65054 -1.32369,-0.54523 -2.08368,0.14254 -0.77568,0.70195 -0.83001,1.64013 -0.12876,2.22213 0.40802,0.33863 0.74772,0.31099 1.63769,-0.13292 1.37026,-0.68358 1.36658,-0.68347 1.36658,-0.0387 0,0.28667 -0.39589,0.6206 -0.87975,0.74195 -0.881,0.22119 -1.08478,0.52606 -0.64523,0.96561 0.41123,0.41136 0.92946,0.25558 1.76624,-0.53056 z"
     id="path1230" />
  <path
     style="opacity:1;fill:#365be4;fill-opacity:0;stroke-width:0.87978"
     d="m 384.87688,454.4946 c -9.45946,-0.36536 -18.67693,-1.72257 -28.32866,-4.17136 -8.71828,-2.21181 -9.69512,-2.56038 -9.5735,-3.41592 0.078,-0.55259 -0.0925,-0.73698 -0.7038,-0.75553 -3.30802,-0.0998 -5.06635,-0.501 -8.72566,-1.98703 -14.9742,-6.08144 -29.18615,-14.88829 -41.07399,-25.45254 -2.74489,-2.43927 -3.22947,-3.02084 -2.87401,-3.44922 0.35233,-0.42433 0.0934,-0.85269 -1.466,-2.43256 -1.96079,-1.98536 -2.66464,-2.31871 -2.85955,-1.35432 -0.13006,0.64348 -6.07657,-5.81955 -10.44886,-11.3564 -15.0255,-19.0271 -25.01446,-41.46028 -29.04041,-65.21875 -1.51236,-8.9249 -1.7989,-12.89457 -1.77785,-24.63351 0.0168,-9.46508 0.13679,-11.95932 0.82014,-17.06747 2.54562,-19.02984 8.14901,-36.16408 17.09689,-52.27914 3.05873,-5.5089 9.49703,-15.037 13.77753,-20.38981 4.41541,-5.52144 14.46812,-15.72687 19.95365,-20.25674 24.42237,-20.16771 54.00134,-31.54861 86.01579,-33.09573 l 5.0147,-0.24233 v 35.54136 35.54135 l -4.13494,0.21631 c -22.12422,1.15725 -43.00711,13.34551 -55.96359,32.66317 -5.59677,8.34455 -9.55136,18.77616 -11.18938,29.51563 -0.84024,5.50945 -0.84742,15.67327 -0.0146,20.93853 4.18545,26.46492 21.11931,47.7595 45.74146,57.52015 14.39609,5.70682 31.48625,6.43767 46.8515,2.00353 14.92884,-4.30801 28.43553,-13.62631 37.82142,-26.09249 10.45466,-13.88602 15.82488,-31.9891 14.49451,-48.86261 -1.12363,-14.25208 -5.51662,-26.33059 -13.83437,-38.03715 -2.64258,-3.7193 -9.18342,-10.61885 -12.94025,-13.64982 -5.56747,-4.49166 -12.88963,-8.72987 -19.49351,-11.28292 l -2.92283,-1.13004 10.96417,-33.60708 c 9.7473,-29.87705 11.03848,-33.5938 11.63398,-33.48751 1.26844,0.22635 7.36686,2.60572 12.45885,4.86095 27.86897,12.34295 51.54076,33.91707 66.82498,60.90329 9.03262,15.94808 14.97846,34.32774 17.50694,54.11674 0.79339,6.20945 0.90369,24.485 0.18692,30.9679 -5.64299,51.0377 -36.73879,94.55213 -82.75934,115.8112 -21.21351,9.79951 -42.90091,14.03994 -67.03824,13.10787 z m -7.91805,-30.57202 c 0,-0.41552 -0.32832,-0.54218 -2.28741,-0.8822 l -1.40765,-0.2443 2.0236,-0.88354 c 2.9046,-1.26837 2.76423,-1.97637 -0.49903,-2.51528 -2.02905,-0.33508 -2.5781,-0.3279 -2.80697,0.0362 -0.2119,0.33741 0.22219,0.54403 1.70117,0.81006 l 1.98563,0.35703 -2.16995,0.93619 c -2.53492,1.09386 -2.84358,1.90281 -0.85018,2.22819 0.72578,0.11834 1.5572,0.2655 1.8475,0.32704 1.20774,0.25558 2.46329,0.16907 2.46329,-0.16969 z m 0.41226,-5.84994 c 0.96866,-0.87668 0.88339,-3.4326 -0.13853,-4.14833 -0.94815,-0.66412 -3.07652,-0.71594 -3.92485,-0.0949 -0.34016,0.24869 -0.70541,1.10126 -0.81189,1.89467 -0.15599,1.16253 -0.0486,1.58675 0.55127,2.18708 0.92909,0.9291 3.37515,1.02089 4.324,0.16218 z m -81.81352,-4.75763 c 0.94465,-0.88742 1.04357,-1.77364 0.2697,-2.41587 -0.44754,-0.37152 -0.76161,-0.34876 -1.75956,0.127 -0.66814,0.31873 -1.21477,0.43285 -1.21477,0.25395 0,-0.36151 0.70246,-0.88118 1.20234,-0.88957 0.17741,-0.003 0.38857,-0.20328 0.4692,-0.44522 0.21691,-0.65054 -1.32369,-0.54523 -2.08368,0.14254 -0.77568,0.70195 -0.83001,1.64013 -0.12876,2.22213 0.40802,0.33863 0.74772,0.31099 1.63769,-0.13292 1.37026,-0.68358 1.36658,-0.68347 1.36658,-0.0387 0,0.28667 -0.39589,0.6206 -0.87975,0.74195 -0.881,0.22119 -1.08478,0.52606 -0.64523,0.96561 0.41123,0.41136 0.92946,0.25558 1.76624,-0.53056 z"
     id="path2372" />
  <text
     xml:space="preserve"
     id="text5848"
     style="font-weight:bold;font-size:12px;line-height:1.25;font-family:'Open Sans';-inkscape-font-specification:'Open Sans, Bold';white-space:pre;shape-inside:url(#rect5850);display:inline;fill:#808080"
     transform="matrix(0.81742231,0,0,0.81742231,22.234827,47.399263)"
     inkscape:export-filename="/home/julieta/Descargas/backgorund.png"
     inkscape:export-xdpi="90"
     inkscape:export-ydpi="90"><tspan
       x="58.873047"
       y="606.90981"
       id="tspan1694"><tspan
         style="font-weight:300;font-size:14.6803px;-inkscape-font-specification:'Open Sans, Light';fill:#000000"
         id="tspan1692">Source: Prepared by the authors using data from the UNICEF COVID-19 Vaccine Market Dashboard updated as of May 1, 2023.
</tspan></tspan><tspan
       x="58.873047"
       y="625.26021"
       id="tspan1698"><tspan
         style="font-weight:300;font-size:14.6803px;-inkscape-font-specification:'Open Sans, Light';fill:#000000"
         id="tspan1696">*The proportion refers to the number of contracts for each company that publishes or does not publish the contract price. </tspan></tspan></text>
</svg>
